<svg width="97" height="32" viewBox="0 0 97 32" fill="none" xmlns="http://www.w3.org/2000/svg">
<path d="M38.8723 15.8248C39.8051 15.4056 40.9252 15.196 42.2341 15.196C43.5429 15.196 44.5702 15.3496 45.4518 15.6584C46.3335 15.9672 47.0135 16.3672 47.4903 16.86C47.9671 17.3529 48.2792 17.8841 48.4264 18.4585H52.3498C52.1434 17.2249 51.6329 16.1224 50.8185 15.1528C50.0025 14.1831 48.8712 13.4151 47.4247 12.8502C45.9767 12.2854 44.247 12.0022 42.2341 12.0022C40.0884 12.0022 38.2595 12.3478 36.7458 13.0374C35.2321 13.7287 34.0865 14.6791 33.3072 15.892C32.528 17.1049 32.1392 18.4745 32.1392 20.0026C32.1392 21.5307 32.528 22.9003 33.3072 24.1132C34.0865 25.3261 35.2321 26.2765 36.7458 26.9677C38.2595 27.659 40.0884 28.003 42.2341 28.003C44.2614 28.003 45.9991 27.723 47.4471 27.1662C48.8936 26.6077 50.0216 25.8445 50.8297 24.8748C51.6377 23.9052 52.145 22.7963 52.3498 21.5467H48.4264C48.2792 22.1195 47.9671 22.6523 47.4903 23.1452C47.0119 23.638 46.3335 24.038 45.4518 24.3468C44.5702 24.6556 43.4981 24.8092 42.2341 24.8092C40.97 24.8092 39.8067 24.5996 38.8723 24.1804C37.9394 23.7612 37.237 23.1884 36.7682 22.4619C36.2978 21.7339 36.0626 20.9162 36.0626 20.0042C36.0626 19.0922 36.2978 18.2745 36.7682 17.5465C37.2386 16.8184 37.9394 16.2456 38.8723 15.828V15.8248Z" fill="white"/>
<path d="M76.7686 12.287H72.8452V27.715H76.7686V12.287Z" fill="white"/>
<path d="M67.8642 17.5881C66.8946 17.1401 65.7041 16.916 64.2944 16.916H58.9166V12.287H54.9932V27.715H64.2944C65.7041 27.715 66.8946 27.491 67.8642 27.043C68.8339 26.5949 69.5619 25.9709 70.0467 25.1693C70.5315 24.3692 70.7748 23.4252 70.7748 22.3371C70.7748 21.2491 70.5315 20.281 70.0467 19.4714C69.5619 18.6633 68.8339 18.0361 67.8642 17.5865V17.5881ZM66.5313 23.5052C66.3185 23.8428 66.0065 24.1036 65.5953 24.2876C65.1841 24.4716 64.6833 24.5628 64.096 24.5628H58.7182V20.0666H64.096C64.6833 20.0666 65.1825 20.1626 65.5953 20.353C66.0065 20.5434 66.3185 20.809 66.5313 21.1467C66.7442 21.4843 66.8514 21.8811 66.8514 22.3371C66.8514 22.7931 66.7442 23.1676 66.5313 23.5052Z" fill="white"/>
<path d="M95.9328 14.7991C95.4544 14.0055 94.7343 13.3879 93.7727 12.9478C92.8094 12.5078 91.6158 12.287 90.1917 12.287H80.2744V27.715H84.1978V22.9771H90.1933C91.619 22.9771 92.8126 22.7563 93.7743 22.3163C94.7359 21.8763 95.456 21.2555 95.9344 20.4538C96.4112 19.6538 96.6512 18.7097 96.6512 17.6217C96.6512 16.5336 96.4128 15.5944 95.9344 14.8007L95.9328 14.7991ZM92.4286 18.7881C92.2302 19.1114 91.9294 19.3642 91.5246 19.5482C91.1198 19.7322 90.6237 19.8234 90.0365 19.8234H83.9978V15.4376H90.0365C90.6237 15.4376 91.1198 15.5256 91.5246 15.7016C91.9294 15.8776 92.2302 16.132 92.4286 16.4616C92.627 16.7928 92.7262 17.1785 92.7262 17.6185C92.7262 18.0585 92.627 18.4633 92.4286 18.7865V18.7881Z" fill="white"/>
<path d="M11.7574 0L10.8469 21.8827L0 15.004V9.67249L6.67234 13.9031L7.25156 0H11.7574Z" fill="white"/>
<path d="M18.0856 20.3898C18.0856 24.2364 21.1546 27.379 24.9708 27.4974V32C18.6713 31.88 13.583 26.7165 13.583 20.3882C13.583 14.0599 18.6713 8.89804 24.9708 8.77804V13.2807C21.1546 13.4007 18.0856 16.5432 18.0856 20.3866V20.3898Z" fill="#CCFF33"/>
</svg>
