<svg width="209" height="36" viewBox="0 0 209 36" fill="none" xmlns="http://www.w3.org/2000/svg">
<g clip-path="url(#clip0_138_666)">
<mask id="mask0_138_666" style="mask-type:luminance" maskUnits="userSpaceOnUse" x="0" y="0" width="209" height="36">
<path d="M208.818 0H0.181641V36H208.818V0Z" fill="white"/>
</mask>
<g mask="url(#mask0_138_666)">
<path d="M63.3623 22.3353C63.3623 25.0683 60.7932 27.0473 57.1773 27.0473H48.709V10.084H56.892C60.4126 10.084 62.8865 11.9688 62.8865 14.6076C62.8865 16.3981 61.9349 17.529 60.5079 18.1887C62.0301 18.7542 63.3623 20.262 63.3623 22.3353ZM52.4197 13.194V16.8693H56.7967C58.1289 16.8693 58.9852 16.1154 58.9852 15.0788C58.9852 14.0421 58.0337 13.194 56.7967 13.194H52.4197ZM57.1773 23.9374C58.6047 23.9374 59.6515 23.0892 59.6515 21.8641C59.6515 20.639 58.6999 19.7908 57.1773 19.7908H52.4197V23.9374H57.1773Z" fill="white"/>
<path d="M77.3496 26.9531L71.4503 20.262H70.4987V26.9531H66.6924V10.084H70.4987V16.5866H71.4503L77.1591 10.084H81.6313L74.4948 18.1887L82.2972 26.9531H77.3496Z" fill="white"/>
<path d="M82.2974 18.5652C82.2974 13.4762 86.1033 9.80078 91.4316 9.80078C96.7602 9.80078 100.566 13.4762 100.566 18.5652C100.566 23.6542 96.7602 27.3296 91.4316 27.3296C86.1033 27.3296 82.2974 23.6542 82.2974 18.5652ZM96.5701 18.5652C96.5701 15.361 94.4764 13.1935 91.4316 13.1935C88.3867 13.1935 86.2934 15.361 86.2934 18.5652C86.2934 21.7694 88.3867 23.9369 91.4316 23.9369C94.4764 23.9369 96.5701 21.7694 96.5701 18.5652Z" fill="white"/>
<path d="M115.125 10.084H118.931V26.9531H115.125V20.1678H107.513V26.9531H103.707V10.084H107.513V16.7751H115.125V10.084Z" fill="white"/>
<path d="M127.113 26.9531V13.4767H121.214V10.084H136.723V13.4767H130.824V26.9531H127.113Z" fill="white"/>
<path d="M153.09 17.5285V26.9526H150.33L149.569 24.3139C148.713 25.7275 146.905 27.3296 144.145 27.3296C140.72 27.3296 138.246 25.0678 138.246 21.9579C138.246 18.8479 140.72 16.6804 145.763 16.6804H149.474C149.284 14.5128 148.142 13.005 146.049 13.005C144.336 13.005 143.194 13.9474 142.623 14.984L139.198 14.4186C140.054 11.4971 143.004 9.80078 146.239 9.80078C150.426 9.80078 153.09 12.628 153.09 17.5285ZM149.379 19.6019H145.858C143.004 19.6019 142.052 20.5443 142.052 21.7694C142.052 23.183 143.194 24.1254 145.097 24.1254C147.571 24.1254 149.379 22.3348 149.379 19.6019Z" fill="white"/>
<path d="M167.743 26.9531L161.844 20.262H160.892V26.9531H157.086V10.084H160.892V16.5866H161.844L167.553 10.084H172.025L164.888 18.1887L172.691 26.9531H167.743Z" fill="white"/>
<path d="M179.542 26.9531V13.4767H173.643V10.084H189.153V13.4767H183.253V26.9531H179.542Z" fill="white"/>
<path d="M208.182 19.6019H194.481C194.861 22.2406 196.765 23.9369 199.619 23.9369C201.617 23.9369 203.14 23.0887 203.996 21.8636L207.517 22.4291C206.28 25.6333 202.949 27.3296 199.334 27.3296C194.195 27.3296 190.484 23.6542 190.484 18.5652C190.484 13.4762 194.195 9.80078 199.334 9.80078C204.472 9.80078 208.182 13.4762 208.182 18.3767C208.278 18.8479 208.182 19.2249 208.182 19.6019ZM194.766 16.6804H204.186C203.52 14.6071 201.807 13.0992 199.429 13.0992C197.145 13.005 195.337 14.5128 194.766 16.6804Z" fill="white"/>
<path fill-rule="evenodd" clip-rule="evenodd" d="M2.73669 2.5306C0.181641 5.0612 0.181641 9.13414 0.181641 17.28V18.72C0.181641 26.8659 0.181641 30.9388 2.73669 33.4694C5.29175 36 9.40403 36 17.6286 36H19.0825C27.3071 36 31.4194 36 33.9744 33.4694C36.5295 30.9388 36.5295 26.8659 36.5295 18.72V17.28C36.5295 9.13414 36.5295 5.0612 33.9744 2.5306C31.4194 0 27.3071 0 19.0825 0H17.6286C9.40403 0 5.29175 0 2.73669 2.5306ZM6.31541 10.9501C6.51227 20.3101 11.2375 25.935 19.5217 25.935H19.9913V20.58C23.0354 20.88 25.3373 23.0851 26.2611 25.935H30.5624C29.3811 21.6751 26.2763 19.32 24.3377 18.42C26.2763 17.3101 29.0024 14.6101 29.6536 10.9501H25.7461C24.898 13.9201 22.3842 16.62 19.9913 16.875V10.9501H16.0838V21.33C13.6606 20.7301 10.6014 17.8201 10.4651 10.9501H6.31541Z" fill="white"/>
</g>
</g>
<defs>
<clipPath id="clip0_138_666">
<rect width="209" height="36" fill="white"/>
</clipPath>
</defs>
</svg>
